# xmcd CD database file
#
# Track frame offsets:
#	150
#	14500
#	29305
#	43470
#	58830
#	75587
#	93455
#	112420
#	129875
#	149060
#	175610
#	198322
#	219027
#	232397
#	248565
#	270170
#	290350
#	321390
#
# Disc length: 4395 seconds
#
# Revision: 2
# Processed by: cddbd v1.5.1PL0 Copyright (c) Steve Scherf et al.
# Submitted via: CDex 1.51
#
DISCID=0b112912
DTITLE=Various Artist - 音椿~the greatest hits of SHISEIDO~白盤
DYEAR=2003
DGENRE=JPop
TTITLE0=オレンジ村から春へ/りりぃ
TTITLE1=マイピュアレディ/尾崎　亜美
TTITLE2=サクセス/ダウン・タウン・ブギウギ・バンド
TTITLE3=君のひとみは10000ボルト/堀内　孝雄
TTITLE4=裸足の季節/松田　聖子
TTITLE5=蜃気楼/クリスタルキング
TTITLE6=い・け・な・いルージュマジック/忌野　清志郎・坂本　龍一
TTITLE7=Woman”Ｗの悲劇”より/薬師丸　ひろ子
TTITLE8=メトロポリスの片隅で/松任谷　由美
TTITLE9=サレンダー/布袋　寅泰
TTITLE10=朝日のあたる道/オリジナル・ラヴ
TTITLE11=精一杯の微笑み/高橋　幸宏
TTITLE12=コマソンNo.1/ウルフルズ
TTITLE13=TOKYO FANTASIA/山下　久美子
TTITLE14=Still(Single Version)/矢沢　永吉
TTITLE15=Girls Be Glamorous/氷室　京介
TTITLE16=流し目プレイ☆(evtended version)/小林　桂
TTITLE17=data
EXTD=YEAR: 2003
EXTT0=
EXTT1=
EXTT2=
EXTT3=
EXTT4=
EXTT5=
EXTT6=
EXTT7=
EXTT8=
EXTT9=
EXTT10=
EXTT11=
EXTT12=
EXTT13=
EXTT14=
EXTT15=
EXTT16=
EXTT17=
PLAYORDER=
